<mxfile host="Electron" modified="2023-08-18T14:17:29.084Z" agent="Mozilla/5.0 (X11; Linux x86_64) AppleWebKit/537.36 (KHTML, like Gecko) draw.io/21.3.7 Chrome/112.0.5615.204 Electron/24.5.0 Safari/537.36" etag="ErN9FfSVpK2EjWg5PErA" version="21.3.7" type="device">
  <diagram id="o-GlBjIIxTXlQrCIFuJj" name="Page-1">
    <mxGraphModel dx="1037" dy="599" grid="1" gridSize="10" guides="1" tooltips="1" connect="1" arrows="1" fold="1" page="1" pageScale="1" pageWidth="827" pageHeight="1169" math="0" shadow="0">
      <root>
        <mxCell id="0" />
        <mxCell id="1" parent="0" />
        <mxCell id="YOwzDxQ_ZlnOnKqTeJGU-26" value="" style="rounded=1;whiteSpace=wrap;html=1;fontSize=20;fillColor=#dae8fc;strokeColor=#6c8ebf;strokeWidth=3;imageAspect=1;absoluteArcSize=1;" parent="1" vertex="1">
          <mxGeometry x="80" y="680" width="570" height="260" as="geometry" />
        </mxCell>
        <mxCell id="YOwzDxQ_ZlnOnKqTeJGU-2" value="&lt;span style=&quot;font-weight: 400;&quot;&gt;&lt;font style=&quot;font-size: 20px;&quot;&gt;&lt;i style=&quot;&quot;&gt;func&lt;sub&gt;1&lt;/sub&gt;&lt;/i&gt;(&amp;nbsp; &amp;nbsp; &amp;nbsp; &amp;nbsp; &amp;nbsp; )&lt;/font&gt;&lt;/span&gt;" style="text;strokeColor=none;fillColor=none;html=1;fontSize=20;fontStyle=1;verticalAlign=middle;align=center;rounded=1;shadow=0;glass=0;sketch=0;fontColor=#000000;labelPosition=center;verticalLabelPosition=middle;container=0;" parent="1" vertex="1">
          <mxGeometry x="91.00000000000001" y="899" width="128.96551724137944" height="40" as="geometry" />
        </mxCell>
        <mxCell id="YOwzDxQ_ZlnOnKqTeJGU-16" value="&lt;span style=&quot;font-weight: 400;&quot;&gt;&lt;font style=&quot;&quot;&gt;&lt;i style=&quot;&quot;&gt;func&lt;span style=&quot;font-size: 16.6667px;&quot;&gt;&lt;sub&gt;2&lt;/sub&gt;&lt;/span&gt;&lt;/i&gt;(&amp;nbsp; &amp;nbsp; &amp;nbsp; &amp;nbsp; &amp;nbsp; )&lt;/font&gt;&lt;/span&gt;" style="text;strokeColor=none;fillColor=none;html=1;fontSize=20;fontStyle=1;verticalAlign=middle;align=center;rounded=1;shadow=0;glass=0;sketch=0;fontColor=#000000;labelPosition=center;verticalLabelPosition=middle;container=0;" parent="1" vertex="1">
          <mxGeometry x="229" y="899" width="128.96551724137944" height="40" as="geometry" />
        </mxCell>
        <mxCell id="YOwzDxQ_ZlnOnKqTeJGU-10" value="&lt;span style=&quot;font-weight: 400;&quot;&gt;&lt;font style=&quot;font-size: 20px;&quot;&gt;&lt;i style=&quot;&quot;&gt;func&lt;sub&gt;3&lt;/sub&gt;&lt;/i&gt;(&amp;nbsp; &amp;nbsp; &amp;nbsp; &amp;nbsp; &amp;nbsp; )&lt;/font&gt;&lt;/span&gt;" style="text;strokeColor=none;fillColor=none;html=1;fontSize=20;fontStyle=1;verticalAlign=middle;align=center;rounded=1;shadow=0;glass=0;sketch=0;fontColor=#000000;labelPosition=center;verticalLabelPosition=middle;container=0;" parent="1" vertex="1">
          <mxGeometry x="365" y="899" width="128.96551724137944" height="40" as="geometry" />
        </mxCell>
        <mxCell id="YOwzDxQ_ZlnOnKqTeJGU-13" value="&lt;span style=&quot;font-weight: 400;&quot;&gt;&lt;font style=&quot;&quot;&gt;&lt;i style=&quot;&quot;&gt;func&lt;span style=&quot;font-size: 16.6667px;&quot;&gt;&lt;sub&gt;n&lt;/sub&gt;&lt;/span&gt;&lt;/i&gt;(&amp;nbsp; &amp;nbsp; &amp;nbsp; &amp;nbsp; &amp;nbsp; )&lt;/font&gt;&lt;/span&gt;" style="text;strokeColor=none;fillColor=none;html=1;fontSize=20;fontStyle=1;verticalAlign=middle;align=center;rounded=1;shadow=0;glass=0;sketch=0;fontColor=#000000;labelPosition=center;verticalLabelPosition=middle;" parent="1" vertex="1">
          <mxGeometry x="512" y="899" width="128.96551724137944" height="40" as="geometry" />
        </mxCell>
        <mxCell id="YOwzDxQ_ZlnOnKqTeJGU-3" value="" style="rounded=1;whiteSpace=wrap;html=1;shadow=0;glass=0;sketch=0;fontSize=20;strokeWidth=2;fillColor=#d5e8d4;strokeColor=#82b366;container=0;" parent="1" vertex="1">
          <mxGeometry x="154.0027586206896" y="909" width="51.5862068965517" height="20" as="geometry" />
        </mxCell>
        <mxCell id="YOwzDxQ_ZlnOnKqTeJGU-20" style="edgeStyle=orthogonalEdgeStyle;orthogonalLoop=1;jettySize=auto;html=1;fontSize=20;strokeColor=#82B366;startArrow=classic;startFill=1;endArrow=classic;endFill=1;rounded=1;strokeWidth=2;" parent="1" source="YOwzDxQ_ZlnOnKqTeJGU-3" target="IntnKj-TkoBKL4sc6sY5-9" edge="1">
          <mxGeometry relative="1" as="geometry">
            <Array as="points">
              <mxPoint x="180" y="880" />
              <mxPoint x="365" y="880" />
            </Array>
          </mxGeometry>
        </mxCell>
        <mxCell id="YOwzDxQ_ZlnOnKqTeJGU-9" value="" style="rounded=1;whiteSpace=wrap;html=1;shadow=0;glass=0;sketch=0;fontSize=20;strokeWidth=2;fillColor=#d5e8d4;strokeColor=#82b366;container=0;" parent="1" vertex="1">
          <mxGeometry x="427.48275862068954" y="909" width="51.5862068965517" height="20" as="geometry" />
        </mxCell>
        <mxCell id="YOwzDxQ_ZlnOnKqTeJGU-21" style="edgeStyle=orthogonalEdgeStyle;orthogonalLoop=1;jettySize=auto;html=1;fontSize=20;startArrow=classic;startFill=1;endArrow=classic;endFill=1;strokeColor=#82B366;rounded=1;strokeWidth=2;entryX=0.5;entryY=1;entryDx=0;entryDy=0;" parent="1" source="YOwzDxQ_ZlnOnKqTeJGU-9" target="IntnKj-TkoBKL4sc6sY5-9" edge="1">
          <mxGeometry relative="1" as="geometry">
            <Array as="points">
              <mxPoint x="453" y="880" />
              <mxPoint x="365" y="880" />
            </Array>
          </mxGeometry>
        </mxCell>
        <mxCell id="YOwzDxQ_ZlnOnKqTeJGU-12" value="" style="rounded=1;whiteSpace=wrap;html=1;shadow=0;glass=0;sketch=0;fontSize=20;strokeWidth=2;fillColor=#d5e8d4;strokeColor=#82b366;" parent="1" vertex="1">
          <mxGeometry x="573.4827586206895" y="910" width="51.5862068965517" height="20" as="geometry" />
        </mxCell>
        <mxCell id="YOwzDxQ_ZlnOnKqTeJGU-22" style="edgeStyle=orthogonalEdgeStyle;orthogonalLoop=1;jettySize=auto;html=1;fontSize=20;startArrow=classic;startFill=1;endArrow=classic;endFill=1;strokeColor=#82B366;rounded=1;strokeWidth=2;entryX=0.5;entryY=1;entryDx=0;entryDy=0;" parent="1" source="YOwzDxQ_ZlnOnKqTeJGU-12" target="IntnKj-TkoBKL4sc6sY5-9" edge="1">
          <mxGeometry relative="1" as="geometry">
            <Array as="points">
              <mxPoint x="599" y="880" />
              <mxPoint x="365" y="880" />
            </Array>
          </mxGeometry>
        </mxCell>
        <mxCell id="YOwzDxQ_ZlnOnKqTeJGU-15" value="" style="rounded=1;whiteSpace=wrap;html=1;shadow=0;glass=0;sketch=0;fontSize=20;strokeWidth=2;fillColor=#d5e8d4;strokeColor=#82b366;container=0;" parent="1" vertex="1">
          <mxGeometry x="291.41275862068954" y="909" width="51.5862068965517" height="20" as="geometry" />
        </mxCell>
        <mxCell id="YOwzDxQ_ZlnOnKqTeJGU-27" value="&lt;font color=&quot;#6c8ebf&quot;&gt;Python module containing a class and functions&lt;/font&gt;" style="text;html=1;strokeColor=none;fillColor=none;align=center;verticalAlign=middle;whiteSpace=wrap;rounded=0;fontSize=20;" parent="1" vertex="1">
          <mxGeometry x="400" y="590" width="240" height="30" as="geometry" />
        </mxCell>
        <mxCell id="YOwzDxQ_ZlnOnKqTeJGU-29" value="" style="endArrow=classic;html=1;rounded=1;fontSize=20;strokeColor=#6C8EBF;strokeWidth=3;fontColor=#6C8EBF;" parent="1" edge="1">
          <mxGeometry width="50" height="50" relative="1" as="geometry">
            <mxPoint x="512" y="633" as="sourcePoint" />
            <mxPoint x="452" y="673" as="targetPoint" />
          </mxGeometry>
        </mxCell>
        <mxCell id="IntnKj-TkoBKL4sc6sY5-9" value="" style="rounded=1;whiteSpace=wrap;html=1;shadow=0;glass=0;sketch=0;fontSize=20;strokeWidth=4;fillColor=#d5e8d4;strokeColor=#82b366;container=0;absoluteArcSize=1;" vertex="1" parent="1">
          <mxGeometry x="90.51" y="690" width="549.49" height="160" as="geometry" />
        </mxCell>
        <mxCell id="IntnKj-TkoBKL4sc6sY5-10" value="&lt;font color=&quot;#d79b00&quot;&gt;Logic to manage attributes&lt;/font&gt;" style="rounded=1;whiteSpace=wrap;html=1;fillColor=#ffe6cc;strokeColor=#d79b00;fontSize=20;sketch=0;strokeWidth=2;container=0;absoluteArcSize=1;" vertex="1" parent="1">
          <mxGeometry x="100" y="780" width="240" height="60" as="geometry" />
        </mxCell>
        <mxCell id="IntnKj-TkoBKL4sc6sY5-11" value="&lt;font color=&quot;#b85450&quot;&gt;Methods&lt;br&gt;(built-in functions)&lt;br&gt;&lt;/font&gt;" style="rounded=1;whiteSpace=wrap;html=1;fillColor=#f8cecc;strokeColor=#b85450;fontSize=20;sketch=0;glass=0;strokeWidth=2;container=0;absoluteArcSize=1;" vertex="1" parent="1">
          <mxGeometry x="350" y="700" width="280" height="140" as="geometry" />
        </mxCell>
        <mxCell id="IntnKj-TkoBKL4sc6sY5-12" value="&lt;font color=&quot;#9673a6&quot;&gt;Attributes in object&lt;/font&gt;" style="rounded=1;whiteSpace=wrap;html=1;fillColor=#e1d5e7;strokeColor=#9673a6;fontSize=20;sketch=0;strokeWidth=2;container=0;absoluteArcSize=1;" vertex="1" parent="1">
          <mxGeometry x="100" y="700" width="240" height="70" as="geometry" />
        </mxCell>
        <mxCell id="MvFuOAibIjmGyKfd0Iik-31" value="" style="endArrow=classic;startArrow=classic;html=1;strokeWidth=2;curved=1;exitX=0.5;exitY=0;exitDx=0;exitDy=0;strokeColor=#2B7AF0;" parent="1" source="IntnKj-TkoBKL4sc6sY5-12" target="MvFuOAibIjmGyKfd0Iik-24" edge="1">
          <mxGeometry width="50" height="50" relative="1" as="geometry">
            <mxPoint x="320" y="130" as="sourcePoint" />
            <mxPoint x="370" y="80" as="targetPoint" />
          </mxGeometry>
        </mxCell>
        <mxCell id="IntnKj-TkoBKL4sc6sY5-16" value="&lt;font style=&quot;font-size: 14px;&quot; color=&quot;#2b7af0&quot;&gt;File input/output&lt;/font&gt;" style="rounded=1;whiteSpace=wrap;html=1;fillColor=#dae8fc;strokeColor=#2B7AF0;fontSize=19;sketch=0;strokeWidth=2;container=0;verticalAlign=middle;align=center;absoluteArcSize=1;" vertex="1" parent="1">
          <mxGeometry x="160" y="633" width="120" height="30" as="geometry" />
        </mxCell>
        <mxCell id="IntnKj-TkoBKL4sc6sY5-17" style="edgeStyle=orthogonalEdgeStyle;orthogonalLoop=1;jettySize=auto;html=1;fontSize=20;startArrow=classic;startFill=1;endArrow=classic;endFill=1;strokeColor=#82B366;rounded=1;strokeWidth=2;entryX=0.5;entryY=1;entryDx=0;entryDy=0;exitX=0.5;exitY=0;exitDx=0;exitDy=0;" edge="1" parent="1" source="YOwzDxQ_ZlnOnKqTeJGU-15" target="IntnKj-TkoBKL4sc6sY5-9">
          <mxGeometry relative="1" as="geometry">
            <mxPoint x="496.5" y="499" as="sourcePoint" />
            <mxPoint x="236.5" y="440" as="targetPoint" />
            <Array as="points">
              <mxPoint x="317" y="880" />
              <mxPoint x="365" y="880" />
            </Array>
          </mxGeometry>
        </mxCell>
        <mxCell id="MvFuOAibIjmGyKfd0Iik-24" value="&lt;font color=&quot;#9673a6&quot;&gt;Data contained in file&lt;/font&gt;" style="rounded=1;whiteSpace=wrap;html=1;fillColor=#d0cee2;strokeColor=#56517e;fontSize=20;sketch=0;glass=0;strokeWidth=2;container=0;absoluteArcSize=1;" parent="1" vertex="1">
          <mxGeometry x="91.25172413793103" y="555.25" width="258.4618620689655" height="52.5" as="geometry" />
        </mxCell>
      </root>
    </mxGraphModel>
  </diagram>
</mxfile>
